<svg width="161" height="42" fill="none" xmlns="http://www.w3.org/2000/svg"><g clip-path="url(#clip0_974_308)"><mask id="a" style="mask-type:luminance" maskUnits="userSpaceOnUse" x="0" y="10" width="161" height="22"><path d="M161 10.5H0v21h161v-21z" fill="#fff"/></mask><g mask="url(#a)"><path d="M13.565 17.5H6.67c-.46 0-.902.178-1.231.497L.268 22.999c-.566.547-.175 1.501.616 1.501h8.875c.46 0 .902-.178 1.231-.497l5.697-5.509a3.544 3.544 0 012.463-.994H34v-7H22.956c-.46 0-.902.178-1.232.497l-5.696 5.509a3.544 3.544 0 01-2.463.994zM34 24.5H14.813c-.46 0-.902.178-1.232.497L8.41 29.999c-.567.547-.176 1.501.616 1.501H34v-7z" fill="#2E58DB"/><path d="M49.1 14h2.2l5.1 14h-2.04l-1.32-3.84h-5.78L45.92 28H44l5.1-14zm3.34 8.44L50.2 15.9h-.04l-2.3 6.54h4.58zM58.403 14h4.6c1.694 0 2.913.333 3.66 1 .76.653 1.14 1.567 1.14 2.74 0 1.347-.587 2.333-1.76 2.96v.04c1.44.587 2.16 1.693 2.16 3.32 0 1.267-.38 2.24-1.14 2.92-.746.68-1.966 1.02-3.66 1.02h-5V14zm1.88 1.72v4.22h2.62c1.093 0 1.854-.18 2.28-.54.44-.36.66-.88.66-1.56s-.22-1.2-.66-1.56c-.427-.373-1.187-.56-2.28-.56h-2.62zm0 5.94v4.62h3.02c1.094 0 1.853-.187 2.28-.56.44-.387.66-.973.66-1.76 0-.773-.22-1.347-.66-1.72-.427-.387-1.186-.58-2.28-.58h-3.02zm13.489-5.94h-4.46V14h10.8v1.72h-4.46V28h-1.88V15.72zm13.236 12.44c-.906 0-1.726-.147-2.46-.44a5.2 5.2 0 01-1.9-1.3c-.52-.573-.926-1.28-1.22-2.12-.28-.853-.42-1.827-.42-2.92v-.96c0-1.04.14-1.967.42-2.78.294-.813.7-1.5 1.22-2.06a5.199 5.199 0 011.9-1.3c.747-.293 1.567-.44 2.46-.44.894 0 1.707.147 2.44.44.747.293 1.38.72 1.9 1.28.534.56.94 1.253 1.22 2.08.294.813.44 1.74.44 2.78v.96c0 1.093-.146 2.06-.44 2.9-.28.84-.686 1.547-1.22 2.12a5.187 5.187 0 01-1.9 1.32c-.733.293-1.546.44-2.44.44zm0-1.72c1.2 0 2.174-.413 2.92-1.24.747-.84 1.12-2.113 1.12-3.82v-.96c0-.8-.1-1.5-.3-2.1-.2-.613-.48-1.12-.84-1.52a3.184 3.184 0 00-1.26-.92 4.088 4.088 0 00-1.64-.32c-.6 0-1.146.1-1.64.3-.493.2-.92.507-1.28.92-.36.4-.64.907-.84 1.52-.186.6-.28 1.307-.28 2.12v.96c0 .853.1 1.6.3 2.24.2.627.48 1.153.84 1.58.36.413.787.727 1.28.94.494.2 1.034.3 1.62.3zm14.1 1.72c-.88 0-1.68-.147-2.4-.44a5.053 5.053 0 01-1.86-1.3c-.52-.573-.927-1.28-1.22-2.12-.28-.853-.42-1.827-.42-2.92v-.96c0-1.04.14-1.967.42-2.78.293-.813.7-1.5 1.22-2.06a5.052 5.052 0 011.86-1.3 6.402 6.402 0 012.4-.44c.8 0 1.513.113 2.14.34.64.227 1.186.54 1.64.94.466.387.84.847 1.12 1.38.293.52.493 1.087.6 1.7h-2a4.062 4.062 0 00-.46-1.04c-.187-.32-.427-.6-.72-.84-.28-.24-.62-.427-1.02-.56a3.97 3.97 0 00-1.3-.2c-.56 0-1.087.107-1.58.32-.48.2-.894.507-1.24.92-.347.413-.62.92-.82 1.52-.2.6-.3 1.3-.3 2.1v.96c0 .84.1 1.58.3 2.22.2.627.473 1.153.82 1.58.36.413.78.727 1.26.94.48.213 1 .32 1.56.32.973 0 1.746-.26 2.32-.78.586-.533.98-1.22 1.18-2.06h2a5.985 5.985 0 01-.6 1.84 4.893 4.893 0 01-1.12 1.44c-.454.4-1 .713-1.64.94-.627.227-1.34.34-2.14.34zM112.401 14h2.2l5.1 14h-2.04l-1.32-3.84h-5.78l-1.34 3.84h-1.92l5.1-14zm3.34 8.44l-2.24-6.54h-.04l-2.3 6.54h4.58zm5.154 4h.2c.56 0 .993-.16 1.3-.48.32-.333.553-.78.7-1.34.146-.573.233-1.247.26-2.02.026-.773.04-1.607.04-2.5V14h9.2v14h-1.88V15.72h-5.44v4.38c0 1.027-.027 2.027-.08 3-.04.96-.194 1.82-.46 2.58-.267.747-.68 1.347-1.24 1.8-.56.453-1.36.68-2.4.68h-.2v-1.72zm20.391 1.72c-.907 0-1.727-.147-2.46-.44a5.2 5.2 0 01-1.9-1.3c-.52-.573-.927-1.28-1.22-2.12-.28-.853-.42-1.827-.42-2.92v-.96c0-1.04.14-1.967.42-2.78.293-.813.7-1.5 1.22-2.06a5.199 5.199 0 011.9-1.3c.747-.293 1.567-.44 2.46-.44s1.707.147 2.44.44c.747.293 1.38.72 1.9 1.28.533.56.94 1.253 1.22 2.08.293.813.44 1.74.44 2.78v.96c0 1.093-.147 2.06-.44 2.9-.28.84-.687 1.547-1.22 2.12a5.185 5.185 0 01-1.9 1.32c-.733.293-1.547.44-2.44.44zm0-1.72c1.2 0 2.173-.413 2.92-1.24.747-.84 1.12-2.113 1.12-3.82v-.96c0-.8-.1-1.5-.3-2.1-.2-.613-.48-1.12-.84-1.52a3.188 3.188 0 00-1.26-.92 4.087 4.087 0 00-1.64-.32c-.6 0-1.147.1-1.64.3-.493.2-.92.507-1.28.92-.36.4-.64.907-.84 1.52-.187.6-.28 1.307-.28 2.12v.96c0 .853.1 1.6.3 2.24.2.627.48 1.153.84 1.58.36.413.787.727 1.28.94.493.2 1.033.3 1.62.3zM149.985 14h1.88v5.94h7.24V14h1.88v14h-1.88v-6.34h-7.24V28h-1.88V14z" fill="#151515"/></g></g><defs><clipPath id="clip0_974_308"><path fill="#fff" transform="translate(0 10.5)" d="M0 0h161v21H0z"/></clipPath></defs></svg>